<mxfile host="app.diagrams.net" modified="2022-05-30T13:52:39.283Z" agent="5.0 (Windows NT 10.0; Win64; x64) AppleWebKit/537.36 (KHTML, like Gecko) Chrome/101.0.4951.67 Safari/537.36" etag="FQjEnrjUoCaYnFrb9NkG" version="18.1.3" type="github">
  <diagram id="fLhjd-xsowpbdaoZres_" name="Page-1">
    <mxGraphModel dx="1422" dy="882" grid="1" gridSize="10" guides="1" tooltips="0" connect="1" arrows="1" fold="1" page="1" pageScale="1" pageWidth="1169" pageHeight="827" math="0" shadow="0">
      <root>
        <mxCell id="0" />
        <mxCell id="1" parent="0" />
        <mxCell id="Xcq_W968TXhAh59w4AyB-1" value="" style="shape=hexagon;perimeter=hexagonPerimeter2;whiteSpace=wrap;html=1;fixedSize=1;" parent="1" vertex="1">
          <mxGeometry x="315" y="190" width="540" height="460" as="geometry" />
        </mxCell>
        <mxCell id="Xcq_W968TXhAh59w4AyB-2" value="" style="sketch=0;html=1;dashed=0;whitespace=wrap;fillColor=#2875E2;strokeColor=#ffffff;points=[[0.005,0.63,0],[0.1,0.2,0],[0.9,0.2,0],[0.5,0,0],[0.995,0.63,0],[0.72,0.99,0],[0.5,1,0],[0.28,0.99,0]];shape=mxgraph.kubernetes.icon;prIcon=etcd" parent="1" vertex="1">
          <mxGeometry x="535" y="100" width="50" height="48" as="geometry" />
        </mxCell>
        <mxCell id="Xcq_W968TXhAh59w4AyB-4" value="AKS" style="text;html=1;resizable=0;autosize=1;align=center;verticalAlign=middle;points=[];fillColor=none;strokeColor=none;rounded=0;fontStyle=1;fontColor=#990000;" parent="1" vertex="1">
          <mxGeometry x="540" y="160" width="40" height="20" as="geometry" />
        </mxCell>
        <mxCell id="Xcq_W968TXhAh59w4AyB-5" value="" style="sketch=0;aspect=fixed;pointerEvents=1;shadow=0;dashed=0;html=1;strokeColor=none;labelPosition=center;verticalLabelPosition=bottom;verticalAlign=top;align=center;fillColor=#00188D;shape=mxgraph.mscae.enterprise.usb;fontColor=#990000;" parent="1" vertex="1">
          <mxGeometry x="110" y="320.8" width="90" height="41.4" as="geometry" />
        </mxCell>
        <mxCell id="Xcq_W968TXhAh59w4AyB-6" value="&lt;b&gt;&lt;font color=&quot;#0000cc&quot;&gt;Loadbalancer&lt;/font&gt;&lt;/b&gt;" style="text;html=1;resizable=0;autosize=1;align=center;verticalAlign=middle;points=[];fillColor=none;strokeColor=none;rounded=0;fontColor=#990000;" parent="1" vertex="1">
          <mxGeometry x="100" y="370" width="90" height="20" as="geometry" />
        </mxCell>
        <mxCell id="Xcq_W968TXhAh59w4AyB-7" value="" style="shape=process;whiteSpace=wrap;html=1;backgroundOutline=1;fontColor=#0000CC;" parent="1" vertex="1">
          <mxGeometry x="390" y="250" width="160" height="160" as="geometry" />
        </mxCell>
        <mxCell id="x8voL9UQht3IUKuoAsCu-2" value="" style="edgeStyle=orthogonalEdgeStyle;rounded=0;orthogonalLoop=1;jettySize=auto;html=1;" edge="1" parent="1" source="Xcq_W968TXhAh59w4AyB-8" target="x8voL9UQht3IUKuoAsCu-1">
          <mxGeometry relative="1" as="geometry" />
        </mxCell>
        <mxCell id="Xcq_W968TXhAh59w4AyB-8" value="&lt;b&gt;&lt;font color=&quot;#cc00cc&quot;&gt;Frontend&lt;/font&gt;&lt;/b&gt;" style="text;html=1;resizable=0;autosize=1;align=center;verticalAlign=middle;points=[];fillColor=none;strokeColor=none;rounded=0;fontColor=#0000CC;" parent="1" vertex="1">
          <mxGeometry x="435" y="342.2" width="70" height="20" as="geometry" />
        </mxCell>
        <mxCell id="Xcq_W968TXhAh59w4AyB-9" value="" style="shape=process;whiteSpace=wrap;html=1;backgroundOutline=1;fontColor=#CC00CC;" parent="1" vertex="1">
          <mxGeometry x="620" y="250" width="160" height="160" as="geometry" />
        </mxCell>
        <mxCell id="Xcq_W968TXhAh59w4AyB-10" value="&lt;b&gt;Backend&lt;/b&gt;" style="text;html=1;resizable=0;autosize=1;align=center;verticalAlign=middle;points=[];fillColor=none;strokeColor=none;rounded=0;fontColor=#CC00CC;" parent="1" vertex="1">
          <mxGeometry x="665" y="333" width="70" height="20" as="geometry" />
        </mxCell>
        <mxCell id="Xcq_W968TXhAh59w4AyB-11" value="" style="endArrow=none;html=1;rounded=0;fontColor=#CC00CC;" parent="1" source="Xcq_W968TXhAh59w4AyB-8" target="Xcq_W968TXhAh59w4AyB-10" edge="1">
          <mxGeometry width="50" height="50" relative="1" as="geometry">
            <mxPoint x="560" y="480" as="sourcePoint" />
            <mxPoint x="610" y="430" as="targetPoint" />
            <Array as="points">
              <mxPoint x="580" y="320" />
            </Array>
          </mxGeometry>
        </mxCell>
        <mxCell id="Xcq_W968TXhAh59w4AyB-12" value="" style="endArrow=classic;html=1;rounded=0;fontColor=#CC00CC;exitX=0.722;exitY=0.56;exitDx=0;exitDy=0;exitPerimeter=0;entryX=0;entryY=0.563;entryDx=0;entryDy=0;entryPerimeter=0;" parent="1" source="Xcq_W968TXhAh59w4AyB-5" target="Xcq_W968TXhAh59w4AyB-7" edge="1">
          <mxGeometry width="50" height="50" relative="1" as="geometry">
            <mxPoint x="560" y="480" as="sourcePoint" />
            <mxPoint x="610" y="430" as="targetPoint" />
            <Array as="points">
              <mxPoint x="180" y="340" />
            </Array>
          </mxGeometry>
        </mxCell>
        <mxCell id="Xcq_W968TXhAh59w4AyB-13" value="" style="shape=cylinder3;whiteSpace=wrap;html=1;boundedLbl=1;backgroundOutline=1;size=15;fontColor=#CC00CC;" parent="1" vertex="1">
          <mxGeometry x="940" y="282.2" width="150" height="247.8" as="geometry" />
        </mxCell>
        <mxCell id="Xcq_W968TXhAh59w4AyB-14" value="" style="aspect=fixed;perimeter=ellipsePerimeter;html=1;align=center;shadow=0;dashed=0;spacingTop=3;image;image=img/lib/active_directory/database_partition_2.svg;fontColor=#CC00CC;" parent="1" vertex="1">
          <mxGeometry x="990" y="316" width="50" height="37" as="geometry" />
        </mxCell>
        <mxCell id="Xcq_W968TXhAh59w4AyB-15" value="" style="aspect=fixed;perimeter=ellipsePerimeter;html=1;align=center;shadow=0;dashed=0;spacingTop=3;image;image=img/lib/active_directory/database_partition_2.svg;fontColor=#CC00CC;" parent="1" vertex="1">
          <mxGeometry x="1000" y="361.5" width="50" height="37" as="geometry" />
        </mxCell>
        <mxCell id="Xcq_W968TXhAh59w4AyB-16" value="" style="aspect=fixed;perimeter=ellipsePerimeter;html=1;align=center;shadow=0;dashed=0;spacingTop=3;image;image=img/lib/active_directory/database_partition_2.svg;fontColor=#CC00CC;" parent="1" vertex="1">
          <mxGeometry x="990" y="401.5" width="50" height="37" as="geometry" />
        </mxCell>
        <mxCell id="Xcq_W968TXhAh59w4AyB-17" value="&lt;b&gt;&lt;font color=&quot;#ff0000&quot;&gt;SQL pool&lt;/font&gt;&lt;/b&gt;" style="text;html=1;resizable=0;autosize=1;align=center;verticalAlign=middle;points=[];fillColor=none;strokeColor=none;rounded=0;fontColor=#CC00CC;" parent="1" vertex="1">
          <mxGeometry x="970" y="470" width="70" height="20" as="geometry" />
        </mxCell>
        <mxCell id="Xcq_W968TXhAh59w4AyB-19" value="" style="image;html=1;image=img/lib/clip_art/computers/Database_Add_128x128.png;fontColor=#FF0000;" parent="1" vertex="1">
          <mxGeometry x="675" y="250" width="35" height="50" as="geometry" />
        </mxCell>
        <mxCell id="Xcq_W968TXhAh59w4AyB-20" value="" style="image;html=1;image=img/lib/clip_art/computers/Database_Add_128x128.png;fontColor=#FF0000;" parent="1" vertex="1">
          <mxGeometry x="687.5" y="353" width="25" height="40" as="geometry" />
        </mxCell>
        <mxCell id="Xcq_W968TXhAh59w4AyB-21" value="&lt;font color=&quot;#003366&quot;&gt;Backend API&lt;/font&gt;" style="text;html=1;resizable=0;autosize=1;align=center;verticalAlign=middle;points=[];fillColor=none;strokeColor=none;rounded=0;fontColor=#FF0000;" parent="1" vertex="1">
          <mxGeometry x="665" y="296" width="80" height="20" as="geometry" />
        </mxCell>
        <mxCell id="Xcq_W968TXhAh59w4AyB-22" value="Backend API" style="text;html=1;resizable=0;autosize=1;align=center;verticalAlign=middle;points=[];fillColor=none;strokeColor=none;rounded=0;fontColor=#003366;" parent="1" vertex="1">
          <mxGeometry x="660" y="390" width="80" height="20" as="geometry" />
        </mxCell>
        <mxCell id="Xcq_W968TXhAh59w4AyB-23" value="" style="endArrow=classic;startArrow=classic;html=1;rounded=0;fontColor=#003366;entryX=-0.007;entryY=0.253;entryDx=0;entryDy=0;entryPerimeter=0;exitX=1;exitY=0.75;exitDx=0;exitDy=0;" parent="1" source="Xcq_W968TXhAh59w4AyB-19" target="Xcq_W968TXhAh59w4AyB-13" edge="1">
          <mxGeometry width="50" height="50" relative="1" as="geometry">
            <mxPoint x="560" y="480" as="sourcePoint" />
            <mxPoint x="610" y="430" as="targetPoint" />
          </mxGeometry>
        </mxCell>
        <mxCell id="Xcq_W968TXhAh59w4AyB-24" value="" style="endArrow=classic;startArrow=classic;html=1;rounded=0;fontColor=#003366;entryX=0;entryY=0.475;entryDx=0;entryDy=0;entryPerimeter=0;exitX=1;exitY=0.5;exitDx=0;exitDy=0;" parent="1" source="Xcq_W968TXhAh59w4AyB-20" target="Xcq_W968TXhAh59w4AyB-13" edge="1">
          <mxGeometry width="50" height="50" relative="1" as="geometry">
            <mxPoint x="560" y="480" as="sourcePoint" />
            <mxPoint x="610" y="430" as="targetPoint" />
          </mxGeometry>
        </mxCell>
        <mxCell id="Xcq_W968TXhAh59w4AyB-25" value="" style="sketch=0;points=[[0,0,0],[0.25,0,0],[0.5,0,0],[0.75,0,0],[1,0,0],[0,1,0],[0.25,1,0],[0.5,1,0],[0.75,1,0],[1,1,0],[0,0.25,0],[0,0.5,0],[0,0.75,0],[1,0.25,0],[1,0.5,0],[1,0.75,0]];points=[[0,0,0],[0.25,0,0],[0.5,0,0],[0.75,0,0],[1,0,0],[0,1,0],[0.25,1,0],[0.5,1,0],[0.75,1,0],[1,1,0],[0,0.25,0],[0,0.5,0],[0,0.75,0],[1,0.25,0],[1,0.5,0],[1,0.75,0]];outlineConnect=0;fontColor=#232F3E;gradientColor=#F34482;gradientDirection=north;fillColor=#BC1356;strokeColor=#ffffff;dashed=0;verticalLabelPosition=bottom;verticalAlign=top;align=center;html=1;fontSize=12;fontStyle=0;aspect=fixed;shape=mxgraph.aws4.resourceIcon;resIcon=mxgraph.aws4.managed_service_for_grafana;" parent="1" vertex="1">
          <mxGeometry x="422" y="500" width="78" height="78" as="geometry" />
        </mxCell>
        <mxCell id="Xcq_W968TXhAh59w4AyB-26" value="&lt;b&gt;GRAFANA&lt;/b&gt;" style="text;html=1;resizable=0;autosize=1;align=center;verticalAlign=middle;points=[];fillColor=none;strokeColor=none;rounded=0;fontColor=#003366;" parent="1" vertex="1">
          <mxGeometry x="420" y="590" width="70" height="20" as="geometry" />
        </mxCell>
        <mxCell id="Xcq_W968TXhAh59w4AyB-27" value="" style="sketch=0;points=[[0,0,0],[0.25,0,0],[0.5,0,0],[0.75,0,0],[1,0,0],[0,1,0],[0.25,1,0],[0.5,1,0],[0.75,1,0],[1,1,0],[0,0.25,0],[0,0.5,0],[0,0.75,0],[1,0.25,0],[1,0.5,0],[1,0.75,0]];points=[[0,0,0],[0.25,0,0],[0.5,0,0],[0.75,0,0],[1,0,0],[0,1,0],[0.25,1,0],[0.5,1,0],[0.75,1,0],[1,1,0],[0,0.25,0],[0,0.5,0],[0,0.75,0],[1,0.25,0],[1,0.5,0],[1,0.75,0]];outlineConnect=0;fontColor=#232F3E;gradientColor=#F34482;gradientDirection=north;fillColor=#BC1356;strokeColor=#ffffff;dashed=0;verticalLabelPosition=bottom;verticalAlign=top;align=center;html=1;fontSize=12;fontStyle=0;aspect=fixed;shape=mxgraph.aws4.resourceIcon;resIcon=mxgraph.aws4.managed_service_for_prometheus;" parent="1" vertex="1">
          <mxGeometry x="654" y="500" width="78" height="78" as="geometry" />
        </mxCell>
        <mxCell id="Xcq_W968TXhAh59w4AyB-28" value="&lt;b&gt;PROMETHEUS&lt;/b&gt;" style="text;html=1;resizable=0;autosize=1;align=center;verticalAlign=middle;points=[];fillColor=none;strokeColor=none;rounded=0;fontColor=#003366;" parent="1" vertex="1">
          <mxGeometry x="645" y="590" width="100" height="20" as="geometry" />
        </mxCell>
        <mxCell id="x8voL9UQht3IUKuoAsCu-1" value="" style="outlineConnect=0;dashed=0;verticalLabelPosition=bottom;verticalAlign=top;align=center;html=1;shape=mxgraph.aws3.android;fillColor=#115193;gradientColor=none;" vertex="1" parent="1">
          <mxGeometry x="440" y="260" width="60" height="70" as="geometry" />
        </mxCell>
      </root>
    </mxGraphModel>
  </diagram>
</mxfile>
